PathFileType	3	(X/Y/Z)	E:\ViconData\BIOM9541 2025\Week 7\Wed1100\Hanif high squat 7-5 Squat 01.trc
DataRate	CameraRate	NumFrames	NumMarkers	Units	OrigDataRate	OrigDataStartFrame	OrigNumFrames
200.0	200.0	18	19	mm	200.0	659	1756	
Frame#	Time	C7			CLAV			RBAK			LASI			RASI			LPSI			RPSI			LTHI			LKNE			LTIB			LANK			LHEE			LTOE			RTHI			RKNE			RTIB			RANK			RHEE			RTOE			
		X1	Y1	Z1	X2	Y2	Z2	X3	Y3	Z3	X4	Y4	Z4	X5	Y5	Z5	X6	Y6	Z6	X7	Y7	Z7	X8	Y8	Z8	X9	Y9	Z9	X10	Y10	Z10	X11	Y11	Z11	X12	Y12	Z12	X13	Y13	Z13	X14	Y14	Z14	X15	Y15	Z15	X16	Y16	Z16	X17	Y17	Z17	X18	Y18	Z18	X19	Y19	Z19	
659	3.29	324.21329	1318.9794	-1207.0142	174.10303	1251.9231	-1196.3831	338.3125	1234.277	-1357.0465	184.08665	881.96094	-1074.9636	182.4747	891.0275	-1336.3262	354.1122	943.4788	-1162.0135	354.6923	940.7045	-1236.168	250.20015	560.33899	-997.20923	269.56931	422.43842	-1001.3988	298.20776	221.72433	-967.70111	308.70123	63.380123	-975.44244	326.76236	48.040108	-1034.5024	160.71634	38.020878	-946.63483	246.51418	734.58563	-1404.21	278.24969	422.54486	-1411.5045	294.14313	335.61511	-1433.7162	305.94577	73.810242	-1429.0641	323.34711	48.402096	-1364.8259	162.45763	40.625469	-1465.5239	
660	3.295	324.24533	1318.9895	-1207.0	174.13512	1251.9584	-1196.3845	338.33667	1234.291	-1357.0383	184.05597	881.99213	-1074.9679	182.5164	891.0211	-1336.3416	354.0913	943.5378	-1161.9014	354.7293	940.8036	-1236.1669	250.19756	560.32776	-997.22162	269.57791	422.46829	-1001.3883	298.20822	221.73631	-967.69733	308.71033	63.385391	-975.44812	326.79156	48.074516	-1034.51	160.70364	38.036304	-946.64917	246.55766	734.58508	-1404.2042	278.27011	422.55878	-1411.4865	294.15701	335.64285	-1433.7087	305.93216	73.850975	-1429.0642	323.33331	48.442581	-1364.8461	162.41553	40.604633	-1465.4901	
661	3.3	324.27621	1319.0635	-1206.979	174.14169	1252.0116	-1196.3536	338.36945	1234.356	-1357.0533	184.04301	881.95398	-1075.0289	182.5264	891.0612	-1336.343	354.0797	943.6037	-1161.7526	354.6816	940.6516	-1236.135	250.22697	560.29156	-997.26959	269.63629	422.44171	-1001.4458	298.224	221.71016	-967.73938	309.052	63.7118	-975.24475	326.78256	48.174561	-1034.4822	160.68677	38.063923	-946.58215	246.57826	734.64996	-1404.1902	278.28406	422.64587	-1411.455	294.14453	335.74814	-1433.682	305.89191	73.938255	-1429.0645	323.30011	48.497765	-1364.7419	162.37929	40.700798	-1465.474	
662	3.305	324.29187	1319.0879	-1206.9341	174.14928	1252.0927	-1196.3628	338.4136	1234.3909	-1357.0485	184.0228	881.96985	-1075.0499	182.5341	891.1392	-1336.3622	354.0629	943.6104	-1161.6514	354.6941	940.6654	-1236.1346	250.18526	560.32562	-997.2395	269.65836	422.42834	-1001.4667	298.2731	221.71461	-967.77594	309.04095	63.745773	-975.20996	326.77283	48.227299	-1034.4934	160.66432	38.14439	-946.56708	246.58424	734.72015	-1404.188	278.30728	422.71234	-1411.4471	294.17068	335.80975	-1433.6859	305.87241	73.991768	-1429.0555	323.30307	48.500393	-1364.6984	162.36183	40.706512	-1465.4475	
663	3.31	324.32907	1319.1039	-1206.9323	174.15364	1252.1639	-1196.348	338.49356	1234.4269	-1357.0494	184.00789	881.95502	-1075.0945	182.5638	891.1644	-1336.407	354.1056	943.5543	-1161.782	354.7441	940.7182	-1236.1393	250.19774	560.32727	-997.26007	269.67117	422.45276	-1001.456	298.27579	221.72754	-967.76538	309.07288	63.74897	-975.23676	326.75595	48.189522	-1034.4987	160.69522	38.110493	-946.41119	246.61493	734.70532	-1404.2063	278.36197	422.68314	-1411.4181	294.20547	335.78705	-1433.6573	305.88525	73.96624	-1429.0552	323.32678	48.448849	-1364.7665	162.35191	40.688599	-1465.4596	
664	3.315	324.4118	1319.0999	-1206.9543	174.18571	1252.2142	-1196.3674	338.57538	1234.3927	-1357.0577	183.99071	882.0177	-1075.0898	182.6046	891.1171	-1336.4265	354.1242	943.5256	-1161.9216	354.7724	940.7206	-1236.1318	250.21732	560.35352	-997.28436	269.67218	422.47314	-1001.4644	298.29202	221.78128	-967.77338	308.71667	63.439072	-975.47974	326.8002	48.188332	-1034.5562	160.7075	38.121517	-946.4278	246.68771	734.67279	-1404.2007	278.44064	422.62158	-1411.4218	294.27664	335.75275	-1433.6621	305.9187	73.925552	-1429.059	323.3504	48.380913	-1364.9198	162.37498	40.633751	-1465.4563	
665	3.32	324.44818	1319.0706	-1206.9851	174.20438	1252.2424	-1196.4061	338.55246	1234.3724	-1357.0294	183.9812	882.02795	-1075.1085	182.6403	891.1215	-1336.4478	354.1048	943.5568	-1161.7976	354.8256	940.799	-1236.1169	250.2018	560.36865	-997.28564	269.68933	422.48929	-1001.4937	298.30042	221.76683	-967.79907	309.00223	63.786671	-975.20795	326.81009	48.195072	-1034.5845	160.71288	38.123062	-946.50317	246.71214	734.66815	-1404.2014	278.49106	422.64584	-1411.4105	294.34036	335.74997	-1433.6583	305.93674	73.924889	-1429.0656	323.35846	48.435776	-1364.8599	162.39763	40.661732	-1465.4869	
666	3.325	324.48877	1319.0854	-1207.0061	174.25641	1252.225	-1196.4895	338.60843	1234.3761	-1357.0287	183.98564	881.99487	-1075.1376	182.6629	891.1437	-1336.4586	354.0853	943.621	-1161.5345	354.7665	940.6626	-1236.0879	250.23305	560.263	-997.36957	269.70926	422.42499	-1001.4986	298.26859	221.72672	-967.79889	309.05643	63.760757	-975.22473	326.82742	48.267128	-1034.5817	160.70346	38.109982	-946.54486	246.73082	734.73865	-1404.204	278.53918	422.70892	-1411.4044	294.39178	335.80081	-1433.6458	305.93152	73.991081	-1429.0736	323.3302	48.481865	-1364.7942	162.41165	40.714813	-1465.4998	
667	3.33	324.50604	1319.0746	-1206.9944	174.26422	1252.2247	-1196.4561	338.6416	1234.3785	-1357.019	183.96762	881.9325	-1075.1525	182.7077	891.1554	-1336.4604	354.0587	943.6651	-1161.1805	354.636	940.3836	-1235.9894	250.20621	560.18854	-997.37567	269.69653	422.34601	-1001.5247	298.27554	221.6555	-967.82239	308.98016	63.759594	-975.18646	326.84985	48.35368	-1034.5901	160.70129	38.079178	-946.51233	246.76253	734.79138	-1404.1924	278.60559	422.77722	-1411.3877	294.47873	335.85785	-1433.6326	305.9454	74.058929	-1429.0576	323.45541	49.046776	-1363.9103	162.4373	40.75013	-1465.4879	
668	3.335	324.50024	1319.053	-1206.9609	174.26859	1252.2303	-1196.4708	338.64847	1234.3707	-1356.9948	183.96187	881.91522	-1075.1843	182.7379	891.1517	-1336.4646	354.0384	943.6633	-1161.0228	354.5976	940.2318	-1235.968	250.17744	560.19995	-997.37842	269.6655	422.33371	-1001.5273	298.2457	221.63313	-967.83215	308.94562	63.718193	-975.16266	326.90692	48.380959	-1034.59	160.70096	38.067287	-946.47571	246.80423	734.82428	-1404.1978	278.67499	422.80359	-1411.3887	294.552	335.86798	-1433.62	305.98407	74.078545	-1429.0679	323.27426	48.574188	-1364.4832	162.46016	40.788708	-1465.5004	
669	3.34	324.48938	1319.0895	-1206.9431	174.26311	1252.274	-1196.4841	338.69891	1234.4132	-1356.9729	183.95227	881.95691	-1075.1838	182.7448	891.1599	-1336.4679	354.0967	943.6216	-1161.3187	354.7488	940.5244	-1235.9928	250.17944	560.19958	-997.41925	269.6236	422.3754	-1001.5052	298.21011	221.64383	-967.81409	309.05225	63.761765	-975.14923	326.90408	48.299721	-1034.605	160.72874	38.086662	-946.49762	246.83328	734.78802	-1404.1782	278.73322	422.7261	-1411.3777	294.61011	335.81454	-1433.6056	306.00882	74.004654	-1429.0635	323.48352	49.177662	-1363.8768	162.44536	40.717587	-1465.4874	
670	3.345	324.48892	1319.0789	-1206.9368	174.25275	1252.3094	-1196.5179	338.70847	1234.4104	-1356.9635	183.9521	881.97345	-1075.1906	182.7493	891.1758	-1336.4829	354.1482	943.5251	-1161.6301	354.896	940.8185	-1236.0376	250.1252	560.26978	-997.37787	269.59967	422.40054	-1001.5055	298.21094	221.68791	-967.83057	308.68835	63.374348	-975.48907	326.81778	48.190208	-1034.595	160.71385	38.118008	-946.41345	246.86244	734.71271	-1404.162	278.77356	422.642	-1411.3593	294.64532	335.74155	-1433.601	306.01474	73.920364	-1429.0558	323.42001	48.517483	-1364.7996	162.43204	40.645054	-1465.4945	
671	3.35	324.47675	1319.0908	-1206.9402	174.24646	1252.3411	-1196.5278	338.68961	1234.4028	-1356.9447	183.97037	881.995	-1075.2052	182.753	891.1622	-1336.4746	354.1781	943.4912	-1161.7728	354.9232	940.7496	-1236.0881	250.14261	560.26489	-997.42438	269.59341	422.40811	-1001.5103	298.19745	221.68684	-967.81775	308.70538	63.394001	-975.52362	326.70819	48.133774	-1034.5653	160.72423	38.139565	-946.33356	246.86865	734.68457	-1404.1635	278.77029	422.61707	-1411.3695	294.63928	335.71762	-1433.6031	305.99091	73.894203	-1429.057	323.4567	48.47686	-1364.8479	162.39964	40.672119	-1465.5065	
672	3.355	324.50403	1319.1118	-1206.9822	174.24329	1252.314	-1196.5427	338.73129	1234.4336	-1356.9949	183.99908	881.96655	-1075.2295	182.7832	891.1822	-1336.5006	354.1789	943.5448	-1161.6039	354.9152	940.8137	-1236.0447	250.12564	560.22968	-997.44427	269.5368	422.36319	-1001.4912	298.1785	221.66814	-967.80463	308.66983	63.378231	-975.50409	326.77325	48.20129	-1034.6216	160.73302	38.130943	-946.34778	246.89113	734.70337	-1404.1509	278.78125	422.66345	-1411.3735	294.63559	335.74182	-1433.6014	306.00418	73.910263	-1429.0781	323.43973	48.466194	-1364.7855	162.40192	40.725967	-1465.5291	
673	3.36	324.52124	1319.079	-1207.0341	174.25426	1252.2692	-1196.5784	338.74234	1234.421	-1357.0161	184.04195	881.95367	-1075.235	182.8282	891.1801	-1336.4957	354.1779	943.5717	-1161.3185	354.8762	940.6776	-1235.9979	250.11172	560.18793	-997.42761	269.53714	422.33722	-1001.4808	298.19696	221.62257	-967.81866	309.00931	63.725456	-975.2478	326.76855	48.223328	-1034.5924	160.70667	38.083794	-946.42535	246.96815	734.69489	-1404.1434	278.81158	422.68304	-1411.3837	294.63647	335.76352	-1433.5919	305.99722	73.947121	-1429.0754	323.41885	48.487423	-1364.6757	162.42097	40.741886	-1465.5323	
674	3.365	324.55148	1319.0555	-1207.0754	174.26668	1252.2169	-1196.6578	338.77621	1234.4117	-1357.047	184.05829	881.92029	-1075.2672	182.8844	891.1232	-1336.4708	354.2364	943.5904	-1161.3214	354.9173	940.6282	-1236.0046	250.05319	560.19928	-997.38458	269.48041	422.34369	-1001.4416	298.19971	221.5905	-967.83069	308.64801	63.3554	-975.48883	326.81717	48.201443	-1034.6273	160.73013	38.043362	-946.52356	247.03395	734.6347	-1404.127	278.82501	422.6434	-1411.3774	294.66946	335.71454	-1433.5848	306.01074	73.918167	-1429.077	323.41531	48.477173	-1364.6678	162.44145	40.739002	-1465.5435	
675	3.37	324.57257	1319.0435	-1207.1	174.28946	1252.208	-1196.7168	338.78354	1234.3724	-1357.0707	184.07037	881.96198	-1075.2473	182.9833	891.0211	-1336.4799	354.3002	943.5874	-1161.4164	354.9845	940.6155	-1236.0229	250.02089	560.24542	-997.34381	269.4281	422.38376	-1001.418	298.15207	221.64709	-967.7887	308.67722	63.362858	-975.47302	326.82974	48.143181	-1034.6157	160.72304	38.009457	-946.55304	247.09081	734.57562	-1404.1045	278.86108	422.57565	-1411.373	294.7034	335.63568	-1433.5972	306.04352	73.822952	-1429.0568	323.40515	48.459198	-1364.7192	162.48409	40.659702	-1465.5083	
676	3.375	324.57242	1319.0546	-1207.1014	174.28987	1252.208	-1196.7451	338.78345	1234.3931	-1357.0808	184.08859	881.9942	-1075.24	183.006	890.9949	-1336.4703	354.3346	943.5353	-1161.5468	355.0642	940.6831	-1236.0377	249.98178	560.30225	-997.29456	269.39337	422.41589	-1001.381	298.12915	221.65736	-967.77924	308.6969	63.361176	-975.47748	326.81674	48.102261	-1034.6071	160.71606	38.032017	-946.55377	247.11443	734.51727	-1404.085	278.84921	422.51498	-1411.3828	294.67395	335.56931	-1433.5894	306.03571	73.756279	-1429.0483	323.39758	48.419521	-1364.8066	162.46939	40.610195	-1465.5236	
